<mxfile host="app.diagrams.net" modified="2023-06-24T17:57:10.487Z" agent="Mozilla/5.0 (Windows NT 10.0; Win64; x64) AppleWebKit/537.36 (KHTML, like Gecko) Chrome/114.0.0.0 Safari/537.36" etag="YRr3WF04S43aSUsaQsxk" version="21.3.2" type="github">
  <diagram name="PÃ¡gina-1" id="lg0uvK-yI5_3NTGC0Xnd">
    <mxGraphModel dx="869" dy="482" grid="1" gridSize="10" guides="1" tooltips="1" connect="1" arrows="1" fold="1" page="1" pageScale="1" pageWidth="827" pageHeight="1169" math="0" shadow="0">
      <root>
        <mxCell id="0" />
        <mxCell id="1" parent="0" />
        <mxCell id="1XbeLBn8392VuTEueLWA-22" value="" style="rounded=0;whiteSpace=wrap;html=1;" vertex="1" parent="1">
          <mxGeometry x="210" y="270" width="330" height="80" as="geometry" />
        </mxCell>
        <mxCell id="1XbeLBn8392VuTEueLWA-12" value="&amp;nbsp; A lot of requisitions&amp;nbsp;&amp;nbsp;&lt;br&gt;from one source" style="edgeStyle=orthogonalEdgeStyle;rounded=0;orthogonalLoop=1;jettySize=auto;html=1;exitX=0.75;exitY=1;exitDx=0;exitDy=0;entryX=0.75;entryY=0;entryDx=0;entryDy=0;labelBorderColor=default;fillColor=#d5e8d4;strokeColor=#82b366;strokeWidth=2;" edge="1" parent="1" source="1XbeLBn8392VuTEueLWA-1" target="1XbeLBn8392VuTEueLWA-2">
          <mxGeometry x="-0.6701" y="30" relative="1" as="geometry">
            <Array as="points">
              <mxPoint x="620" y="250" />
              <mxPoint x="497" y="250" />
            </Array>
            <mxPoint as="offset" />
          </mxGeometry>
        </mxCell>
        <mxCell id="1XbeLBn8392VuTEueLWA-45" style="edgeStyle=orthogonalEdgeStyle;rounded=0;orthogonalLoop=1;jettySize=auto;html=1;exitX=0.5;exitY=1;exitDx=0;exitDy=0;entryX=0.75;entryY=0;entryDx=0;entryDy=0;strokeWidth=2;fillColor=#f8cecc;strokeColor=#b85450;" edge="1" parent="1" source="1XbeLBn8392VuTEueLWA-1" target="1XbeLBn8392VuTEueLWA-28">
          <mxGeometry relative="1" as="geometry" />
        </mxCell>
        <mxCell id="1XbeLBn8392VuTEueLWA-1" value="Web Application" style="rounded=1;whiteSpace=wrap;html=1;" vertex="1" parent="1">
          <mxGeometry x="530" y="100" width="120" height="80" as="geometry" />
        </mxCell>
        <mxCell id="1XbeLBn8392VuTEueLWA-20" style="edgeStyle=orthogonalEdgeStyle;rounded=0;orthogonalLoop=1;jettySize=auto;html=1;exitX=0.75;exitY=1;exitDx=0;exitDy=0;entryX=1;entryY=0.75;entryDx=0;entryDy=0;fillColor=#d5e8d4;strokeColor=#82b366;strokeWidth=2;" edge="1" parent="1" source="1XbeLBn8392VuTEueLWA-2" target="1XbeLBn8392VuTEueLWA-3">
          <mxGeometry relative="1" as="geometry" />
        </mxCell>
        <mxCell id="1XbeLBn8392VuTEueLWA-25" style="edgeStyle=orthogonalEdgeStyle;rounded=0;orthogonalLoop=1;jettySize=auto;html=1;exitX=0.5;exitY=1;exitDx=0;exitDy=0;entryX=1;entryY=0.5;entryDx=0;entryDy=0;fillColor=#dae8fc;strokeColor=#6c8ebf;strokeWidth=2;" edge="1" parent="1" source="1XbeLBn8392VuTEueLWA-2" target="1XbeLBn8392VuTEueLWA-3">
          <mxGeometry relative="1" as="geometry" />
        </mxCell>
        <mxCell id="1XbeLBn8392VuTEueLWA-38" style="edgeStyle=orthogonalEdgeStyle;rounded=0;orthogonalLoop=1;jettySize=auto;html=1;exitX=0.25;exitY=1;exitDx=0;exitDy=0;entryX=1;entryY=0.25;entryDx=0;entryDy=0;fillColor=#fff2cc;strokeColor=#d6b656;strokeWidth=2;" edge="1" parent="1" source="1XbeLBn8392VuTEueLWA-2" target="1XbeLBn8392VuTEueLWA-3">
          <mxGeometry relative="1" as="geometry" />
        </mxCell>
        <mxCell id="1XbeLBn8392VuTEueLWA-2" value="Endpoints for unique&amp;nbsp;&lt;br&gt;operations" style="rounded=1;whiteSpace=wrap;html=1;" vertex="1" parent="1">
          <mxGeometry x="400" y="300" width="130" height="40" as="geometry" />
        </mxCell>
        <mxCell id="1XbeLBn8392VuTEueLWA-3" value="Banco de Dados" style="rounded=1;whiteSpace=wrap;html=1;arcSize=50;" vertex="1" parent="1">
          <mxGeometry x="315" y="460" width="120" height="40" as="geometry" />
        </mxCell>
        <mxCell id="1XbeLBn8392VuTEueLWA-17" value="" style="group" vertex="1" connectable="0" parent="1">
          <mxGeometry x="40" y="60" width="160" height="120" as="geometry" />
        </mxCell>
        <mxCell id="1XbeLBn8392VuTEueLWA-4" value="" style="rounded=1;whiteSpace=wrap;html=1;" vertex="1" parent="1XbeLBn8392VuTEueLWA-17">
          <mxGeometry width="120" height="80" as="geometry" />
        </mxCell>
        <mxCell id="1XbeLBn8392VuTEueLWA-13" value="" style="rounded=1;whiteSpace=wrap;html=1;" vertex="1" parent="1XbeLBn8392VuTEueLWA-17">
          <mxGeometry x="10" y="10" width="120" height="80" as="geometry" />
        </mxCell>
        <mxCell id="1XbeLBn8392VuTEueLWA-14" value="" style="rounded=1;whiteSpace=wrap;html=1;" vertex="1" parent="1XbeLBn8392VuTEueLWA-17">
          <mxGeometry x="20" y="20" width="120" height="80" as="geometry" />
        </mxCell>
        <mxCell id="1XbeLBn8392VuTEueLWA-15" value="" style="rounded=1;whiteSpace=wrap;html=1;" vertex="1" parent="1XbeLBn8392VuTEueLWA-17">
          <mxGeometry x="30" y="30" width="120" height="80" as="geometry" />
        </mxCell>
        <mxCell id="1XbeLBn8392VuTEueLWA-16" value="Flutter Apps Lite" style="rounded=1;whiteSpace=wrap;html=1;" vertex="1" parent="1XbeLBn8392VuTEueLWA-17">
          <mxGeometry x="40" y="40" width="120" height="80" as="geometry" />
        </mxCell>
        <mxCell id="1XbeLBn8392VuTEueLWA-18" value="&amp;nbsp;A lot of requisition&lt;br&gt;&amp;nbsp;from multiple devices&amp;nbsp;&amp;nbsp;" style="edgeStyle=elbowEdgeStyle;rounded=0;orthogonalLoop=1;jettySize=auto;html=1;exitX=0.75;exitY=1;exitDx=0;exitDy=0;entryX=0.5;entryY=0;entryDx=0;entryDy=0;labelBorderColor=default;fillColor=#dae8fc;strokeColor=#6c8ebf;elbow=vertical;strokeWidth=2;" edge="1" parent="1" source="1XbeLBn8392VuTEueLWA-16" target="1XbeLBn8392VuTEueLWA-2">
          <mxGeometry x="-0.8554" y="30" relative="1" as="geometry">
            <Array as="points">
              <mxPoint x="260" y="250" />
              <mxPoint x="210" y="200" />
            </Array>
            <mxPoint as="offset" />
          </mxGeometry>
        </mxCell>
        <mxCell id="1XbeLBn8392VuTEueLWA-21" value="Fluxo Proposto" style="text;html=1;strokeColor=none;fillColor=none;align=center;verticalAlign=middle;whiteSpace=wrap;rounded=0;fontSize=18;fontStyle=5" vertex="1" parent="1">
          <mxGeometry x="290" y="10" width="140" height="30" as="geometry" />
        </mxCell>
        <mxCell id="1XbeLBn8392VuTEueLWA-35" value="Async queue&lt;br&gt;worker" style="edgeStyle=orthogonalEdgeStyle;rounded=0;orthogonalLoop=1;jettySize=auto;html=1;exitX=0.25;exitY=1;exitDx=0;exitDy=0;entryX=0;entryY=0.5;entryDx=0;entryDy=0;shape=flexArrow;fillColor=#f8cecc;strokeColor=#b85450;" edge="1" parent="1" source="1XbeLBn8392VuTEueLWA-27" target="1XbeLBn8392VuTEueLWA-3">
          <mxGeometry x="-0.4667" y="-2" relative="1" as="geometry">
            <mxPoint as="offset" />
          </mxGeometry>
        </mxCell>
        <mxCell id="1XbeLBn8392VuTEueLWA-27" value="Celery worker" style="rounded=1;whiteSpace=wrap;html=1;arcSize=16;glass=1;shadow=1;strokeWidth=2;" vertex="1" parent="1">
          <mxGeometry x="230" y="380" width="130" height="40" as="geometry" />
        </mxCell>
        <mxCell id="1XbeLBn8392VuTEueLWA-29" style="edgeStyle=orthogonalEdgeStyle;rounded=0;orthogonalLoop=1;jettySize=auto;html=1;exitX=0.25;exitY=1;exitDx=0;exitDy=0;entryX=0.25;entryY=0;entryDx=0;entryDy=0;fillColor=#f8cecc;strokeColor=#b85450;" edge="1" parent="1" source="1XbeLBn8392VuTEueLWA-28" target="1XbeLBn8392VuTEueLWA-27">
          <mxGeometry relative="1" as="geometry" />
        </mxCell>
        <mxCell id="1XbeLBn8392VuTEueLWA-30" style="edgeStyle=orthogonalEdgeStyle;rounded=0;orthogonalLoop=1;jettySize=auto;html=1;exitX=0.5;exitY=1;exitDx=0;exitDy=0;entryX=0.5;entryY=0;entryDx=0;entryDy=0;fillColor=#f8cecc;strokeColor=#b85450;" edge="1" parent="1" source="1XbeLBn8392VuTEueLWA-28" target="1XbeLBn8392VuTEueLWA-27">
          <mxGeometry relative="1" as="geometry" />
        </mxCell>
        <mxCell id="1XbeLBn8392VuTEueLWA-31" style="edgeStyle=orthogonalEdgeStyle;rounded=0;orthogonalLoop=1;jettySize=auto;html=1;exitX=0.75;exitY=1;exitDx=0;exitDy=0;entryX=0.75;entryY=0;entryDx=0;entryDy=0;fillColor=#f8cecc;strokeColor=#b85450;" edge="1" parent="1" source="1XbeLBn8392VuTEueLWA-28" target="1XbeLBn8392VuTEueLWA-27">
          <mxGeometry relative="1" as="geometry" />
        </mxCell>
        <mxCell id="1XbeLBn8392VuTEueLWA-32" style="edgeStyle=orthogonalEdgeStyle;rounded=0;orthogonalLoop=1;jettySize=auto;html=1;exitX=1;exitY=1;exitDx=0;exitDy=0;entryX=1;entryY=0;entryDx=0;entryDy=0;fillColor=#f8cecc;strokeColor=#b85450;" edge="1" parent="1" source="1XbeLBn8392VuTEueLWA-28" target="1XbeLBn8392VuTEueLWA-27">
          <mxGeometry relative="1" as="geometry" />
        </mxCell>
        <mxCell id="1XbeLBn8392VuTEueLWA-33" style="edgeStyle=orthogonalEdgeStyle;rounded=0;orthogonalLoop=1;jettySize=auto;html=1;exitX=0;exitY=1;exitDx=0;exitDy=0;entryX=0;entryY=0;entryDx=0;entryDy=0;fillColor=#f8cecc;strokeColor=#b85450;" edge="1" parent="1" source="1XbeLBn8392VuTEueLWA-28" target="1XbeLBn8392VuTEueLWA-27">
          <mxGeometry relative="1" as="geometry" />
        </mxCell>
        <mxCell id="1XbeLBn8392VuTEueLWA-28" value="RabbitMQ Broker&lt;br&gt;Endpoints" style="rounded=1;whiteSpace=wrap;html=1;" vertex="1" parent="1">
          <mxGeometry x="230" y="300" width="130" height="40" as="geometry" />
        </mxCell>
        <mxCell id="1XbeLBn8392VuTEueLWA-37" style="edgeStyle=orthogonalEdgeStyle;rounded=0;orthogonalLoop=1;jettySize=auto;html=1;exitX=0.75;exitY=1;exitDx=0;exitDy=0;entryX=0.25;entryY=0;entryDx=0;entryDy=0;fillColor=#fff2cc;strokeColor=#d6b656;strokeWidth=2;" edge="1" parent="1" source="1XbeLBn8392VuTEueLWA-36" target="1XbeLBn8392VuTEueLWA-2">
          <mxGeometry relative="1" as="geometry">
            <Array as="points">
              <mxPoint x="350" y="235" />
              <mxPoint x="433" y="235" />
            </Array>
          </mxGeometry>
        </mxCell>
        <mxCell id="1XbeLBn8392VuTEueLWA-44" style="edgeStyle=orthogonalEdgeStyle;rounded=0;orthogonalLoop=1;jettySize=auto;html=1;exitX=0.25;exitY=1;exitDx=0;exitDy=0;strokeWidth=2;fillColor=#f8cecc;strokeColor=#b85450;" edge="1" parent="1" source="1XbeLBn8392VuTEueLWA-36" target="1XbeLBn8392VuTEueLWA-28">
          <mxGeometry relative="1" as="geometry" />
        </mxCell>
        <mxCell id="1XbeLBn8392VuTEueLWA-36" value="Flutter Apps&lt;br&gt;Full" style="rounded=1;whiteSpace=wrap;html=1;" vertex="1" parent="1">
          <mxGeometry x="260" y="110" width="120" height="60" as="geometry" />
        </mxCell>
        <mxCell id="1XbeLBn8392VuTEueLWA-43" style="edgeStyle=orthogonalEdgeStyle;rounded=0;orthogonalLoop=1;jettySize=auto;html=1;exitX=0.5;exitY=1;exitDx=0;exitDy=0;entryX=0.25;entryY=0;entryDx=0;entryDy=0;strokeWidth=2;fillColor=#f8cecc;strokeColor=#b85450;" edge="1" parent="1" source="1XbeLBn8392VuTEueLWA-16" target="1XbeLBn8392VuTEueLWA-28">
          <mxGeometry relative="1" as="geometry" />
        </mxCell>
        <mxCell id="1XbeLBn8392VuTEueLWA-24" value="&lt;span style=&quot;color: rgb(0, 0, 0); font-family: Helvetica; font-size: 12px; font-style: normal; font-variant-ligatures: normal; font-variant-caps: normal; letter-spacing: normal; orphans: 2; text-align: center; text-indent: 0px; text-transform: none; widows: 2; word-spacing: 0px; -webkit-text-stroke-width: 0px; background-color: rgb(251, 251, 251); float: none; display: inline !important;&quot;&gt;Python API&amp;nbsp;&lt;/span&gt;&lt;span style=&quot;color: rgb(0, 0, 0); font-family: Helvetica; font-size: 12px; font-style: normal; font-variant-ligatures: normal; font-variant-caps: normal; letter-spacing: normal; orphans: 2; text-align: center; text-indent: 0px; text-transform: none; widows: 2; word-spacing: 0px; -webkit-text-stroke-width: 0px; background-color: rgb(251, 251, 251); float: none; display: inline !important;&quot;&gt;Fast_api&lt;/span&gt;" style="text;html=1;strokeColor=none;fillColor=none;align=center;verticalAlign=middle;whiteSpace=wrap;rounded=0;fontStyle=5" vertex="1" parent="1">
          <mxGeometry x="210" y="270" width="160" height="20" as="geometry" />
        </mxCell>
      </root>
    </mxGraphModel>
  </diagram>
</mxfile>
